<svg width="56" height="56" viewBox="0 0 56 56" fill="none" xmlns="http://www.w3.org/2000/svg">
<rect width="56" height="56" rx="12" fill="white"/>
<path d="M26.6667 16H22.4C20.1598 16 19.0397 16 18.184 16.436C17.4314 16.8195 16.8195 17.4314 16.436 18.184C16 19.0397 16 20.1598 16 22.4V33.6C16 35.8402 16 36.9603 16.436 37.816C16.8195 38.5686 17.4314 39.1805 18.184 39.564C19.0397 40 20.1598 40 22.4 40H33.6C35.8402 40 36.9603 40 37.816 39.564C38.5686 39.1805 39.1805 38.5686 39.564 37.816C40 36.9603 40 35.8402 40 33.6V29.3333M28 22.6667H33.3333V28M32.6667 16.6667V14.6667M37.9191 18.0809L39.3333 16.6667M39.347 23.3333H41.347M16 29.7961C16.8693 29.9304 17.7598 30 18.6667 30C24.5151 30 29.6871 27.1035 32.8262 22.6667" stroke="#9a3334" stroke-width="2" stroke-linecap="round" stroke-linejoin="round"/>
</svg>
