<svg width="56" height="56" viewBox="0 0 56 56" fill="none" xmlns="http://www.w3.org/2000/svg">
<rect width="165" height="165" rx="12" fill="transparent"/>
<path d="M20.1261 26.9717C20.0433 26.4376 20.0003 25.8905 20.0003 25.3333C20.0003 19.4423 24.8073 14.6667 30.7371 14.6667C36.6669 14.6667 41.474 19.4423 41.474 25.3333C41.474 26.6641 41.2287 27.9379 40.7805 29.1127C40.6875 29.3567 40.6409 29.4786 40.6198 29.5739C40.5989 29.6682 40.5908 29.7346 40.5885 29.8313C40.5862 29.9288 40.5994 30.0362 40.6259 30.2511L41.1627 34.6114C41.2208 35.0834 41.2498 35.3194 41.1713 35.491C41.1025 35.6413 40.9803 35.7607 40.8284 35.826C40.6551 35.9005 40.4198 35.8661 39.9493 35.7971L35.7023 35.1746C35.4805 35.142 35.3696 35.1258 35.2686 35.1264C35.1687 35.1269 35.0996 35.1343 35.0019 35.1549C34.903 35.1756 34.7768 35.2229 34.5243 35.3175C33.3466 35.7586 32.0702 36 30.7371 36C30.1795 36 29.6319 35.9578 29.0972 35.8764M22.1758 41.3333C26.129 41.3333 29.3337 38.0501 29.3337 34C29.3337 29.9499 26.129 26.6667 22.1758 26.6667C18.2226 26.6667 15.0179 29.9499 15.0179 34C15.0179 34.8141 15.1474 35.5973 15.3864 36.329C15.4874 36.6383 15.538 36.7929 15.5545 36.8986C15.5718 37.0089 15.5749 37.0708 15.5684 37.1823C15.5623 37.2891 15.5355 37.4097 15.4821 37.6511L14.667 41.3333L18.6601 40.788C18.878 40.7582 18.987 40.7434 19.0822 40.744C19.1824 40.7447 19.2355 40.7501 19.3338 40.7697C19.4271 40.7883 19.5659 40.8373 19.8434 40.9352C20.5744 41.1932 21.3591 41.3333 22.1758 41.3333Z" stroke="#9a3334" stroke-width="2" stroke-linecap="round" stroke-linejoin="round"/>
</svg>
