<svg width="56" height="56" viewBox="0 0 56 56" fill="none" xmlns="http://www.w3.org/2000/svg">
<rect width="56" height="56" rx="12" fill="white"/>
<path d="M38.6663 28.6667V21.0667C38.6663 18.8265 38.6663 17.7064 38.2304 16.8507C37.8469 16.0981 37.2349 15.4861 36.4823 15.1026C35.6267 14.6667 34.5066 14.6667 32.2663 14.6667H23.733C21.4928 14.6667 20.3727 14.6667 19.517 15.1026C18.7644 15.4861 18.1525 16.0981 17.769 16.8507C17.333 17.7064 17.333 18.8265 17.333 21.0667V34.9333C17.333 37.1735 17.333 38.2936 17.769 39.1493C18.1525 39.9019 18.7644 40.5139 19.517 40.8974C20.3727 41.3333 21.4928 41.3333 23.733 41.3333H27.9997M30.6663 26.6667H22.6663M25.333 32H22.6663M33.333 21.3333H22.6663M31.333 37.3333L33.9997 40L39.9997 34" stroke="#9a3334" stroke-width="2" stroke-linecap="round" stroke-linejoin="round"/>
</svg>
