<svg width="56" height="56" viewBox="0 0 56 56" fill="none" xmlns="http://www.w3.org/2000/svg">
<rect width="56" height="56" rx="12" fill="white"/>
<path d="M21.3337 41.3333V26.6667M14.667 29.3333V38.6667C14.667 40.1394 15.8609 41.3333 17.3337 41.3333H35.2353C37.2096 41.3333 38.8886 39.8929 39.1888 37.9416L40.6247 28.6082C40.9975 26.1852 39.1228 24 36.6712 24H32.0003C31.2639 24 30.667 23.403 30.667 22.6667V17.9544C30.667 16.1386 29.195 14.6667 27.3792 14.6667C26.9461 14.6667 26.5536 14.9217 26.3777 15.3175L21.6856 25.8748C21.4716 26.3563 20.9941 26.6667 20.4672 26.6667H17.3337C15.8609 26.6667 14.667 27.8606 14.667 29.3333Z" stroke="#9a3334" stroke-width="2" stroke-linecap="round" stroke-linejoin="round"/>
</svg>
